<svg width="420" height="423" viewBox="0 0 420 423" fill="none" xmlns="http://www.w3.org/2000/svg">
<path d="M258 318C258 346.514 252.268 372.131 243.185 390.471C233.978 409.061 222.008 419 210 419C197.992 419 186.022 409.061 176.815 390.471C167.732 372.131 162 346.514 162 318C162 289.486 167.732 263.869 176.815 245.529C186.022 226.939 197.992 217 210 217C222.008 217 233.978 226.939 243.185 245.529C252.268 263.869 258 289.486 258 318Z" fill="#FBFBFB" stroke="black" stroke-width="8"/>
<path d="M315 164C343.514 164 369.131 169.732 387.471 178.815C406.061 188.022 416 199.992 416 212C416 224.008 406.061 235.978 387.471 245.185C369.131 254.268 343.514 260 315 260C286.486 260 260.869 254.268 242.529 245.185C223.939 235.978 214 224.008 214 212C214 199.992 223.939 188.022 242.529 178.815C260.869 169.732 286.486 164 315 164Z" fill="#FBFBFB" stroke="black" stroke-width="8"/>
<path d="M105 162C133.514 162 159.131 167.732 177.471 176.815C196.061 186.022 206 197.992 206 210C206 222.008 196.061 233.978 177.471 243.185C159.131 252.268 133.514 258 105 258C76.4861 258 50.8691 252.268 32.529 243.185C13.9385 233.978 4 222.008 4 210C4 197.992 13.9385 186.022 32.529 176.815C50.8691 167.732 76.4861 162 105 162Z" fill="#FBFBFB" stroke="black" stroke-width="8"/>
<path d="M163.957 89.0746C184.119 109.237 198.18 131.404 204.726 150.795C211.361 170.451 209.924 185.943 201.434 194.434C192.943 202.924 177.451 204.361 157.795 197.726C138.404 191.18 116.237 177.119 96.0746 156.957C75.9123 136.795 61.8516 114.627 55.3056 95.2364C48.6703 75.5808 50.1071 60.0889 58.598 51.598C67.0889 43.1071 82.5808 41.6703 102.236 48.3056C121.627 54.8516 143.795 68.9123 163.957 89.0746Z" fill="#FBFBFB" stroke="black" stroke-width="8"/>
<path d="M97.0746 247.075C117.237 226.912 139.404 212.852 158.795 206.306C178.451 199.67 193.943 201.107 202.434 209.598C210.924 218.089 212.361 233.581 205.726 253.236C199.18 272.627 185.119 294.795 164.957 314.957C144.795 335.119 122.627 349.18 103.236 355.726C83.5808 362.361 68.0889 360.924 59.598 352.434C51.1071 343.943 49.6703 328.451 56.3056 308.795C62.8516 289.404 76.9123 267.237 97.0746 247.075Z" fill="#FBFBFB" stroke="black" stroke-width="8"/>
<path d="M265.075 89.0746C285.237 68.9123 307.404 54.8516 326.795 48.3056C346.451 41.6703 361.943 43.1071 370.434 51.598C378.924 60.0889 380.361 75.5808 373.726 95.2364C367.18 114.627 353.119 136.795 332.957 156.957C312.795 177.119 290.627 191.18 271.236 197.726C251.581 204.361 236.089 202.924 227.598 194.434C219.107 185.943 217.67 170.451 224.306 150.795C230.852 131.404 244.912 109.237 265.075 89.0746Z" fill="#FBFBFB" stroke="black" stroke-width="8"/>
<path d="M332.957 247.075C353.119 267.237 367.18 289.404 373.726 308.795C380.361 328.451 378.924 343.943 370.434 352.434C361.943 360.924 346.451 362.361 326.795 355.726C307.404 349.18 285.237 335.119 265.075 314.957C244.912 294.795 230.852 272.627 224.306 253.236C217.67 233.581 219.107 218.089 227.598 209.598C236.089 201.107 251.581 199.67 271.236 206.306C290.627 212.852 312.795 226.912 332.957 247.075Z" fill="#FBFBFB" stroke="black" stroke-width="8"/>
<path d="M258 105C258 133.514 252.268 159.131 243.185 177.471C233.978 196.061 222.008 206 210 206C197.992 206 186.022 196.061 176.815 177.471C167.732 159.131 162 133.514 162 105C162 76.4861 167.732 50.8691 176.815 32.529C186.022 13.9385 197.992 4 210 4C222.008 4 233.978 13.9385 243.185 32.529C252.268 50.8691 258 76.4861 258 105Z" fill="#FBFBFB" stroke="black" stroke-width="8"/>
<circle cx="209.5" cy="211.5" r="102.5" fill="#FFF306" stroke="black" stroke-width="8"/>
<circle cx="166" cy="213" r="11" fill="#010101"/>
<circle cx="254" cy="213" r="11" fill="#010101"/>
<path d="M232 240.134C232 252.285 222.15 262.134 210 262.134C197.85 262.134 188 252.285 188 240.134C188 227.984 197.85 237.634 210 237.634C222.15 237.634 232 227.984 232 240.134Z" fill="#010101"/>
<ellipse cx="150" cy="243" rx="16" ry="9" fill="#FF9CDE" fill-opacity="0.81"/>
<ellipse cx="270" cy="243" rx="16" ry="9" fill="#FF9CDE" fill-opacity="0.81"/>
</svg>
